# xmcd
#
# Track frame offsets:
#	150
#	11799
#	22175
#	33270
#	44618
#	55164
#	65426
#	75732
#	87222
#	97898
#	109642
#	120362
#	130205
#	141187
#	153434
#	165025
#	176217
#	188147
#
# Disc length: 2643 seconds
#
# Revision: 1
# Processed by: cddbd v1.5.1PL0 Copyright (c) Steve Scherf et al.
# Submitted via: audiograbber 1.81.02
#
DISCID=e40a5112
DTITLE=Patsy Cline - Walkin' After Midnight
DYEAR=1900
DGENRE=Country
TTITLE0=Walkin' After Midnight
TTITLE1=Lovesick Blues
TTITLE2=Hungry For Love
TTITLE3=Crazy Dream
TTITLE4=Honky Tonk Merry Go Round
TTITLE5=I Love You Honey
TTITLE6=Three Cigarettes In An Ashtray
TTITLE7=Let The Teardrops Fall
TTITLE8=I Cried All The Way To The Altar
TTITLE9=If Only I Could Stay Asleep
TTITLE10=I Can See An Angel
TTITLE11=Turn The Cards Slowly
TTITLE12=Stop The World And Let Me Off
TTITLE13=A Poor Man's Roses
TTITLE14=Never No More
TTITLE15=Dear God
TTITLE16=Today, Tomorrow and Forever
TTITLE17=Pick Me Up On Your Way Down
EXTD=
EXTT0=
EXTT1=
EXTT2=
EXTT3=
EXTT4=
EXTT5=
EXTT6=
EXTT7=
EXTT8=
EXTT9=
EXTT10=
EXTT11=
EXTT12=
EXTT13=
EXTT14=
EXTT15=
EXTT16=
EXTT17=
PLAYORDER=
